PathFileType	4	(X/Y/Z)	/Users/itak/Documents/Research/Walk-IL/dataset/trc/00132_00007.trc
DataRate	CameraRate	NumFrames	NumMarkers	Units	OrigDataRate	OrigDataStartFrame	OrigNumFrames
100.000000	100.000000	4	53	mm	100.000000	466	747
Frame#	Time	RPSI			LPSI			L3			STRN			T10			C7			CLAV			RBAK			LBAK			LSHO			LUPA			LAEL			LAOL			LWTS			LWPS			LFRA			LIFD			LHPS			LHTS			RSHO			RUPA			RAEL			RAOL			RWTS			RWPS			RFRA			RIFD			RHTS			RHPS			RBHD			LFHD			RFHD			LBHD			LHIP			RHIP			RASI			LASI			LKNE			LTHI			LANK			LTIP			LTOE			LMT1			LMT5			LHEE			RKNE			RTHI			RANK			RTIP			RTOE			RMT1			RMT5			RHEE			
		X1	Y1	Z1	X2	Y2	Z2	X3	Y3	Z3	X4	Y4	Z4	X5	Y5	Z5	X6	Y6	Z6	X7	Y7	Z7	X8	Y8	Z8	X9	Y9	Z9	X10	Y10	Z10	X11	Y11	Z11	X12	Y12	Z12	X13	Y13	Z13	X14	Y14	Z14	X15	Y15	Z15	X16	Y16	Z16	X17	Y17	Z17	X18	Y18	Z18	X19	Y19	Z19	X20	Y20	Z20	X21	Y21	Z21	X22	Y22	Z22	X23	Y23	Z23	X24	Y24	Z24	X25	Y25	Z25	X26	Y26	Z26	X27	Y27	Z27	X28	Y28	Z28	X29	Y29	Z29	X30	Y30	Z30	X31	Y31	Z31	X32	Y32	Z32	X33	Y33	Z33	X34	Y34	Z34	X35	Y35	Z35	X36	Y36	Z36	X37	Y37	Z37	X38	Y38	Z38	X39	Y39	Z39	X40	Y40	Z40	X41	Y41	Z41	X42	Y42	Z42	X43	Y43	Z43	X44	Y44	Z44	X45	Y45	Z45	X46	Y46	Z46	X47	Y47	Z47	X48	Y48	Z48	X49	Y49	Z49	X50	Y50	Z50	X51	Y51	Z51	X52	Y52	Z52	X53	Y53	Z53	

467	4.66	480.2369689941406	1088.034790039062	-369.234130859375	576.4989013671875	1099.308837890625	-465.7759399414062	516.427734375	1132.250366210938	-419.8721313476562	669.908203125	1322.640014648438	-251.379150390625	484.952392578125	1280.60888671875	-418.2674865722656	516.5194091796875	1572.793334960938	-391.8199157714844	648.4950561523438	1458.796630859375	-273.0728454589844	414.8136596679688	1389.698364257812	-372.5705261230469	576.822998046875	1555.16162109375	-473.5207214355469	686.5123901367188	1539.48095703125	-473.1949462890625	705.143798828125	1413.405517578125	-553.72265625	710.3156127929688	1199.888671875	-595.7478637695312	622.5576171875	1190.54296875	-581.3839721679688	755.606689453125	928.5640869140625	-549.3751220703125	696.2982177734375	915.9060668945312	-615.0956420898438	717.89501953125	1083.53759765625	-608.9085083007812	734.994384765625	732.848388671875	-549.5161743164062	715.1829833984375	837.5624389648438	-612.8720703125	766.0250244140625	838.4097900390625	-564.3804931640625	439.8421325683594	1546.887084960938	-218.7667083740234	387.0778503417969	1471.233032226562	-184.4771270751953	376.886962890625	1173.181518554688	-178.5742492675781	433.3626403808594	1174.2939453125	-258.1578063964844	524.620361328125	949.7576904296875	-90.90459442138672	450.3622131347656	922.6392822265625	-111.175651550293	393.407958984375	1101.260009765625	-149.2736206054688	580.7197265625	762.7181396484375	-77.87486267089844	557.5778198242188	846.9360961914062	-62.01909255981445	489.3097229003906	828.584716796875	-78.90023040771484	495.7882385253906	1732.742065429688	-318.0264282226562	693.270751953125	1809.461181640625	-254.8115844726562	588.87841796875	1797.013427734375	-178.851318359375	599.640625	1748.8154296875	-401.2529907226562	725.2857666015625	1023.164001464844	-475.5652160644531	481.5495910644531	979.90478515625	-202.3441009521484	573.0098876953125	1054.01904296875	-171.9787292480469	757.1939697265625	1081.949096679688	-364.0733337402344	845.7011108398438	546.796630859375	-342.4848327636719	816.2249755859375	677.2472534179688	-417.5560302734375	922.8933715820312	34.11683654785156	-303.4343566894531	876.9743041992188	289.4453735351562	-378.1517028808594	974.8140869140625	87.89137268066406	-83.44158172607422	908.0283813476562	74.78884887695312	-134.4798889160156	996.2438354492188	49.99826812744141	-203.8652648925781	834.1038818359375	24.70146179199219	-333.4961242675781	501.0776672363281	500.6083679199219	-337.6236267089844	505.182861328125	767.6849365234375	-235.8740844726562	356.3419189453125	43.90391159057617	-545.6286010742188	460.0594177246094	373.1469116210938	-380.4898376464844	589.8463134765625	34.66643524169922	-487.0551452636719	548.620361328125	33.82423400878906	-550.6435546875	466.05224609375	41.45993804931641	-464.5114440917969	326.1088256835938	58.06588745117188	-613.81640625	
468	4.67	488.7052001953125	1087.93115234375	-364.6352844238281	585.6170654296875	1099.537353515625	-460.2627868652344	524.9415893554688	1132.248901367188	-414.8079833984375	677.1287231445312	1322.750366210938	-245.3774108886719	493.4050598144531	1280.6025390625	-414.4435119628906	525.1504516601562	1572.845947265625	-388.0548706054688	655.7689819335938	1458.804931640625	-267.6051330566406	423.3165893554688	1389.614135742188	-369.7077331542969	586.365966796875	1555.067504882812	-469.0722961425781	696.0670166015625	1539.37939453125	-467.388427734375	715.973388671875	1413.219116210938	-547.481689453125	722.7006225585938	1199.68408203125	-589.2432861328125	634.8162841796875	1189.903564453125	-575.853271484375	768.1257934570312	928.3270263671875	-543.1527709960938	709.4129638671875	915.8040161132812	-609.4036865234375	730.7743530273438	1083.44580078125	-602.525146484375	747.9965209960938	732.5922241210938	-544.41259765625	728.5224609375	837.5433349609375	-607.36767578125	778.9159545898438	838.2903442382812	-558.4426879882812	446.4744873046875	1546.935180664062	-215.8129272460938	393.2784423828125	1471.295043945312	-182.2883911132812	382.0260925292969	1173.408447265625	-177.0803680419922	440.0914916992188	1174.410400390625	-255.6938171386719	526.3911743164062	948.1390380859375	-88.21894073486328	452.0827331542969	921.6951904296875	-110.3992385864258	397.6092529296875	1101.242309570312	-148.14697265625	580.0193481445312	760.4341430664062	-75.46370697021484	557.5607299804688	844.7869873046875	-59.51176071166992	489.4037780761719	827.3775634765625	-77.61025238037109	502.9880676269531	1732.905517578125	-314.8778076171875	700.2164306640625	1809.635498046875	-249.1968841552734	594.9183349609375	1797.251342773438	-174.5336456298828	608.34033203125	1748.958374023438	-396.7043762207031	734.5257568359375	1023.6064453125	-468.538818359375	488.3917846679688	979.689697265625	-197.8102722167969	579.7433471679688	1053.927001953125	-166.5174560546875	765.759033203125	1082.080078125	-356.9573059082031	851.9249267578125	546.6153564453125	-334.0275573730469	823.802734375	677.5443115234375	-408.7469177246094	924.1091918945312	33.2619514465332	-300.2771301269531	881.7858276367188	289.2066955566406	-371.2384033203125	971.7198486328125	79.06496429443359	-76.80796051025391	905.7855834960938	68.70407867431641	-129.9609222412109	995.513916015625	45.90963745117188	-198.5375823974609	835.835205078125	25.82536888122559	-332.3890686035156	507.3470153808594	500.4169616699219	-333.3350830078125	511.8067016601562	767.5057983398438	-231.3686981201172	356.7131652832031	46.40456008911133	-545.1472778320312	464.5029296875	373.5733337402344	-377.2413940429688	590.0819702148438	34.63114929199219	-486.8255615234375	548.7824096679688	34.36970138549805	-550.2147827148438	466.3750610351562	41.56364059448242	-464.0623474121094	326.7142639160156	62.16750717163086	-613.1309814453125	
469	4.68	497.1632080078125	1088.129272460938	-359.74853515625	594.4453735351562	1100.244750976562	-454.5223693847656	533.327392578125	1132.616943359375	-409.5514221191406	684.3333740234375	1323.301635742188	-239.2779998779297	501.911865234375	1281.034545898438	-410.4568481445312	533.7799682617188	1573.298217773438	-384.2178955078125	663.0297241210938	1459.243041992188	-262.078125	431.8056030273438	1389.934326171875	-366.7266540527344	595.8997192382812	1555.380126953125	-464.5577392578125	705.5911254882812	1539.67724609375	-461.5016479492188	726.802734375	1413.410400390625	-541.1034545898438	735.1613159179688	1199.848022460938	-582.4297485351562	647.181640625	1189.627197265625	-570.0751342773438	780.70068359375	928.437744140625	-536.6160888671875	722.5857543945312	916.07275390625	-603.3956909179688	743.7310180664062	1083.720825195312	-595.8148803710938	761.0154418945312	732.6965942382812	-539.018798828125	741.9071044921875	837.9060668945312	-601.56005859375	791.8463134765625	838.52001953125	-552.2005615234375	453.1311645507812	1547.406127929688	-212.8089447021484	399.4845886230469	1471.784790039062	-180.0322113037109	387.173828125	1174.088256835938	-175.6367034912109	446.8773498535156	1174.984252929688	-253.2090148925781	527.9749755859375	946.8826904296875	-85.63583374023438	453.6255798339844	921.218505859375	-109.735725402832	401.7551879882812	1101.6845703125	-147.0512390136719	578.9324340820312	758.4993896484375	-73.19114685058594	557.2127075195312	842.9891357421875	-57.11308670043945	489.2128295898438	826.5864868164062	-76.61972045898438	510.2436828613281	1733.492797851562	-311.6266174316406	707.156494140625	1810.185913085938	-243.4336242675781	600.9653930664062	1797.859985351562	-170.0856323242188	617.0557861328125	1749.557739257812	-392.0168151855469	743.6519775390625	1024.627685546875	-461.3858032226562	495.2808837890625	979.7247314453125	-193.0951538085938	586.4808959960938	1054.183959960938	-160.9246215820312	774.2584228515625	1082.712890625	-349.7058715820312	858.1038818359375	546.9290161132812	-325.8219909667969	831.284423828125	678.4346923828125	-399.8144836425781	924.8312377929688	32.53269195556641	-298.4655151367188	886.4884033203125	289.3684387207031	-365.176025390625	969.5213623046875	70.81023406982422	-72.30029296875	904.2059326171875	63.06126403808594	-126.9633178710938	995.0338134765625	42.22530364990234	-195.2886810302734	837.0042114257812	26.94299507141113	-332.0685119628906	514.1246948242188	500.3740234375	-328.56787109375	518.7003173828125	767.5576782226562	-226.6091461181641	357.1785583496094	49.33893203735352	-544.4722900390625	469.2809753417969	374.2505798339844	-373.56298828125	590.3111572265625	34.65730667114258	-486.5022277832031	548.97412109375	35.06491470336914	-549.6998901367188	466.7448425292969	41.68303680419922	-463.5257263183594	327.5178527832031	66.91124725341797	-612.196533203125	
470	4.69	505.5916442871094	1088.670532226562	-354.6076354980469	603.0000610351562	1101.43408203125	-448.5733642578125	541.5746459960938	1133.380859375	-404.1382751464844	691.4828491210938	1324.31689453125	-233.0755615234375	510.461669921875	1281.897094726562	-406.2900695800781	542.391845703125	1574.146240234375	-380.3085327148438	670.2532348632812	1460.143676757812	-256.4847412109375	440.2736511230469	1390.664916992188	-363.60205078125	605.4072265625	1556.098022460938	-459.968017578125	715.0636596679688	1540.398071289062	-455.5224304199219	737.6227416992188	1414.020874023438	-534.5890502929688	747.6716918945312	1200.4306640625	-575.3063354492188	659.629638671875	1189.7783203125	-564.0565185546875	793.3139038085938	928.948486328125	-529.7368774414062	735.8114013671875	916.7477416992188	-597.05224609375	756.7376708984375	1084.404541015625	-588.7696533203125	774.0517578125	733.2089233398438	-533.2855834960938	755.3318481445312	838.6835327148438	-595.4170532226562	804.8114013671875	839.1522216796875	-545.619384765625	459.7943115234375	1548.336059570312	-209.7627410888672	405.6864929199219	1472.751098632812	-177.7071228027344	392.3259887695312	1175.275390625	-174.2303924560547	453.6817626953125	1176.077514648438	-250.7013244628906	529.3652954101562	946.0447387695312	-83.17972564697266	455.0028381347656	921.2762451171875	-109.1868667602539	405.845458984375	1102.644653320312	-145.9589538574219	577.4783325195312	756.9725952148438	-71.10623931884766	556.5647583007812	841.6004028320312	-54.84619522094727	488.760009765625	826.264404296875	-75.93722534179688	517.6028442382812	1734.515625	-308.2438049316406	714.087646484375	1811.11181640625	-237.5277709960938	607.020263671875	1798.843872070312	-165.50830078125	625.7725830078125	1750.604736328125	-387.1882934570312	752.6746826171875	1026.195556640625	-454.1039123535156	502.1954040527344	980.0546264648438	-188.2232360839844	593.1726684570312	1054.823974609375	-155.22705078125	782.670654296875	1083.862915039062	-342.3151245117188	864.1943969726562	547.6885375976562	-317.9673767089844	838.6505737304688	679.84716796875	-390.9163513183594	925.2945556640625	31.93036460876465	-297.6228332519531	891.20849609375	289.8953247070312	-359.9234008789062	968.284423828125	63.80989456176758	-69.62101745605469	903.3931884765625	58.31795120239258	-125.2056274414062	994.9664306640625	39.17318344116211	-193.687255859375	837.84228515625	27.9441089630127	-332.23876953125	521.455810546875	500.4649658203125	-323.2070922851562	525.8618774414062	767.8643188476562	-221.581298828125	357.7803955078125	52.75473403930664	-543.5811157226562	474.423095703125	375.1915893554688	-369.3703002929688	590.53369140625	34.75444412231445	-486.075439453125	549.2027587890625	35.94125747680664	-549.089111328125	467.1673583984375	41.81125259399414	-462.8973083496094	328.6092834472656	72.37374114990234	-610.9801635742188	
